# xmcd CD database file
#
# Track frame offsets:
#	150
#	10965
#	21335
#	37050
#	48732
#	72735
#	82107
#	96657
#	107237
#	122135
#	145530
#	158445
#	166790
#	177334
#	195352
#
# Disc length: 2773 seconds
#
# Revision: 0
# Processed by: cddbd v1.5.2PL0 Copyright (c) Steve Scherf et al.
# Submitted via: CDex 1.51
#
DISCID=d10ad30f
DTITLE=Lee Mace's Ozark Opry - Through The Years
DYEAR=1986
DGENRE=Country
TTITLE0=Everybody's Sweetheart
TTITLE1=Twist and Shout
TTITLE2=Who's Gonna Fill Their Shoes?
TTITLE3=Fiddle Medley
TTITLE4=Gospel Medley
TTITLE5=Any Ole Time
TTITLE6=Forever and Ever, Amen
TTITLE7=That's My Pa
TTITLE8=Cry
TTITLE9=Ragged Ole Flag
TTITLE10=My Window Faces The South
TTITLE11=Me and My Big, Loud Mouth
TTITLE12=She Don't Know She's Beautiful
TTITLE13=Mississippi Squirrell
TTITLE14=Down Yonder
EXTD=YEAR: 1986
EXTT0=
EXTT1=
EXTT2=
EXTT3=
EXTT4=
EXTT5=
EXTT6=
EXTT7=
EXTT8=
EXTT9=
EXTT10=
EXTT11=
EXTT12=
EXTT13=
EXTT14=
PLAYORDER=
